<svg xmlns="http://www.w3.org/2000/svg" viewBox="0 0 98.6 92.9"><path d="M96.5 78.2c1.1 0 2.1-1 2.1-2.1V34.4c0-1.1-1-2.1-2.1-2.1H61.4c-.8 0-1.5-.7-1.5-1.5V1.5c0-1.4-1.8-2.1-2.6-1C41 19 26 27.9 15.7 32.4c-.2.2.5.1-13.6.1-1.1 0-2.1 1-2.1 2.1v56.2c0 1.1 1 2.1 2.1 2.1h94.4c1.1 0 2.1-1 2.1-2.1s-1-2.1-2.1-2.1H14.4c-2 0-2-3.1 0-3.1h82.1c1.1 0 2.1-1 2.1-2.1s-1-2.1-2.1-2.1H14.4c-2 0-2-3.1 0-3.1h82.1v-.1zm-2.1-40v34.3c0 .8-.7 1.5-1.5 1.5-83.7-.3-80.1.6-80.1-.7 0-.3.1-.6.6-.7C42.6 63.5 60 44.1 60 39.3c0-.2-.4-2.6 1.5-2.6h31.4c.9 0 1.5.7 1.5 1.5z"/></svg>